<svg xmlns="http://www.w3.org/2000/svg" xmlns:xlink="http://www.w3.org/1999/xlink" width="500" zoomAndPan="magnify" viewBox="0 0 375 374.999991" height="500" preserveAspectRatio="xMidYMid meet" version="1.0"><defs><clipPath id="06f01f1ba2"><path d="M 229 96 L 278 96 L 278 146 L 229 146 Z M 229 96 " clip-rule="nonzero"/></clipPath><clipPath id="6657788d22"><path d="M 229.191406 102.613281 L 234.851562 96.953125 L 277.410156 139.515625 L 271.75 145.175781 Z M 229.191406 102.613281 " clip-rule="nonzero"/></clipPath><clipPath id="18a170f3cc"><path d="M 0 0.71875 L 48.441406 0.71875 L 48.441406 49.199219 L 0 49.199219 Z M 0 0.71875 " clip-rule="nonzero"/></clipPath><clipPath id="e9867f02b9"><path d="M 0.191406 6.613281 L 5.851562 0.953125 L 48.410156 43.515625 L 42.75 49.175781 Z M 0.191406 6.613281 " clip-rule="nonzero"/></clipPath><clipPath id="1224939b0f"><rect x="0" width="49" y="0" height="50"/></clipPath><clipPath id="e29ca78219"><path d="M 23 199 L 219 199 L 219 296 L 23 296 Z M 23 199 " clip-rule="nonzero"/></clipPath><clipPath id="7d1bfcd3ec"><path d="M 23.835938 268.660156 L 208.183594 199.699219 L 218.339844 226.847656 L 33.988281 295.808594 Z M 23.835938 268.660156 " clip-rule="nonzero"/></clipPath><clipPath id="a620601d42"><path d="M 0.761719 0.679688 L 195.398438 0.679688 L 195.398438 96.921875 L 0.761719 96.921875 Z M 0.761719 0.679688 " clip-rule="nonzero"/></clipPath><clipPath id="3ea31156d5"><path d="M 0.835938 69.660156 L 185.183594 0.699219 L 195.339844 27.847656 L 10.988281 96.808594 Z M 0.835938 69.660156 " clip-rule="nonzero"/></clipPath><clipPath id="a7d8854764"><rect x="0" width="196" y="0" height="97"/></clipPath><clipPath id="885ab884a1"><path d="M 121 117 L 346 117 L 346 242 L 121 242 Z M 121 117 " clip-rule="nonzero"/></clipPath><clipPath id="7f3f5fc964"><path d="M 5.921875 222.574219 L 254.917969 23.570312 L 355.589844 149.535156 L 106.59375 348.535156 Z M 5.921875 222.574219 " clip-rule="nonzero"/></clipPath><clipPath id="bc45f1452f"><path d="M 5.921875 222.574219 L 254.917969 23.570312 L 355.589844 149.535156 L 106.59375 348.535156 Z M 5.921875 222.574219 " clip-rule="nonzero"/></clipPath><clipPath id="f80a0988cd"><path d="M 5.921875 222.574219 L 254.917969 23.570312 L 355.59375 149.535156 L 106.59375 348.535156 Z M 5.921875 222.574219 " clip-rule="nonzero"/></clipPath><clipPath id="b122f80065"><path d="M 16 165 L 261 165 L 261 254 L 16 254 Z M 16 165 " clip-rule="nonzero"/></clipPath><clipPath id="1c16cbe96a"><path d="M 5.921875 222.574219 L 254.917969 23.570312 L 355.589844 149.535156 L 106.59375 348.535156 Z M 5.921875 222.574219 " clip-rule="nonzero"/></clipPath><clipPath id="aec72c50ce"><path d="M 5.921875 222.574219 L 254.917969 23.570312 L 355.589844 149.535156 L 106.59375 348.535156 Z M 5.921875 222.574219 " clip-rule="nonzero"/></clipPath><clipPath id="deffa0094c"><path d="M 5.921875 222.574219 L 254.917969 23.570312 L 355.59375 149.535156 L 106.59375 348.535156 Z M 5.921875 222.574219 " clip-rule="nonzero"/></clipPath><clipPath id="d6abde7327"><path d="M 57 69.730469 L 331 69.730469 L 331 211 L 57 211 Z M 57 69.730469 " clip-rule="nonzero"/></clipPath><clipPath id="1f1100546c"><path d="M 94 197.183594 L 294 197.183594 L 294 320.785156 L 94 320.785156 Z M 94 197.183594 " clip-rule="nonzero"/></clipPath><clipPath id="f14d8f26e8"><path d="M 175 151 L 370 151 L 370 248 L 175 248 Z M 175 151 " clip-rule="nonzero"/></clipPath><clipPath id="4708e824f1"><path d="M 175.105469 220.605469 L 359.457031 151.644531 L 369.613281 178.792969 L 185.261719 247.753906 Z M 175.105469 220.605469 " clip-rule="nonzero"/></clipPath><clipPath id="55e827f701"><path d="M 0 0.441406 L 194.839844 0.441406 L 194.839844 96.921875 L 0 96.921875 Z M 0 0.441406 " clip-rule="nonzero"/></clipPath><clipPath id="e6b19a3f94"><path d="M 0.105469 69.605469 L 184.457031 0.644531 L 194.613281 27.792969 L 10.261719 96.753906 Z M 0.105469 69.605469 " clip-rule="nonzero"/></clipPath><clipPath id="1ca9f5485b"><rect x="0" width="195" y="0" height="97"/></clipPath><clipPath id="5824288466"><path d="M 244 110 L 273 110 L 273 138 L 244 138 Z M 244 110 " clip-rule="nonzero"/></clipPath><clipPath id="2367ca0c99"><path d="M 244.980469 119.339844 L 253.566406 110.410156 L 272.214844 128.351562 L 263.628906 137.277344 Z M 244.980469 119.339844 " clip-rule="nonzero"/></clipPath><clipPath id="5bdd494262"><path d="M 0.800781 0.398438 L 28.398438 0.398438 L 28.398438 27.28125 L 0.800781 27.28125 Z M 0.800781 0.398438 " clip-rule="nonzero"/></clipPath><clipPath id="906f751e58"><path d="M 0.980469 9.339844 L 9.566406 0.410156 L 28.214844 18.351562 L 19.628906 27.277344 Z M 0.980469 9.339844 " clip-rule="nonzero"/></clipPath><clipPath id="8b7a2d9db5"><rect x="0" width="29" y="0" height="28"/></clipPath><clipPath id="e42092bdbc"><path d="M 279.628906 110.410156 L 288.007812 110.410156 L 288.007812 149.109375 L 279.628906 149.109375 Z M 279.628906 110.410156 " clip-rule="nonzero"/></clipPath><clipPath id="ab82d1aa98"><path d="M 0.628906 0.410156 L 9.007812 0.410156 L 9.007812 39.109375 L 0.628906 39.109375 Z M 0.628906 0.410156 " clip-rule="nonzero"/></clipPath><clipPath id="d33bd7b22c"><rect x="0" width="10" y="0" height="40"/></clipPath><clipPath id="3fe03e358f"><path d="M 306 191.496094 L 346.230469 191.496094 L 346.230469 231.414062 L 306 231.414062 Z M 306 191.496094 " clip-rule="nonzero"/></clipPath><clipPath id="b8a839e911"><path d="M 326.078125 191.496094 C 314.992188 191.496094 306 200.433594 306 211.453125 C 306 222.476562 314.992188 231.414062 326.078125 231.414062 C 337.167969 231.414062 346.15625 222.476562 346.15625 211.453125 C 346.15625 200.433594 337.167969 191.496094 326.078125 191.496094 Z M 326.078125 191.496094 " clip-rule="nonzero"/></clipPath><clipPath id="e9c68d38c7"><path d="M 0 0.496094 L 40.230469 0.496094 L 40.230469 40.414062 L 0 40.414062 Z M 0 0.496094 " clip-rule="nonzero"/></clipPath><clipPath id="6dfd66503f"><path d="M 20.078125 0.496094 C 8.992188 0.496094 0 9.433594 0 20.453125 C 0 31.476562 8.992188 40.414062 20.078125 40.414062 C 31.167969 40.414062 40.15625 31.476562 40.15625 20.453125 C 40.15625 9.433594 31.167969 0.496094 20.078125 0.496094 Z M 20.078125 0.496094 " clip-rule="nonzero"/></clipPath><clipPath id="8057f515f1"><rect x="0" width="41" y="0" height="41"/></clipPath><clipPath id="b6d12bad9d"><path d="M 196.28125 34.878906 L 221.871094 34.878906 L 221.871094 47.523438 L 196.28125 47.523438 Z M 196.28125 34.878906 " clip-rule="nonzero"/></clipPath><clipPath id="e0288136ea"><path d="M 0.28125 0.878906 L 25.871094 0.878906 L 25.871094 13.523438 L 0.28125 13.523438 Z M 0.28125 0.878906 " clip-rule="nonzero"/></clipPath><clipPath id="e0695d0eb3"><rect x="0" width="26" y="0" height="14"/></clipPath><clipPath id="2f8d7eeda6"><path d="M 13.433594 231.414062 L 37.636719 231.414062 L 37.636719 255.617188 L 13.433594 255.617188 Z M 13.433594 231.414062 " clip-rule="nonzero"/></clipPath><clipPath id="24e605f469"><path d="M 25.535156 231.414062 C 18.851562 231.414062 13.433594 236.832031 13.433594 243.515625 C 13.433594 250.199219 18.851562 255.617188 25.535156 255.617188 C 32.21875 255.617188 37.636719 250.199219 37.636719 243.515625 C 37.636719 236.832031 32.21875 231.414062 25.535156 231.414062 Z M 25.535156 231.414062 " clip-rule="nonzero"/></clipPath><clipPath id="7d1247812a"><path d="M 0.433594 0.414062 L 24.636719 0.414062 L 24.636719 24.617188 L 0.433594 24.617188 Z M 0.433594 0.414062 " clip-rule="nonzero"/></clipPath><clipPath id="552e953a52"><path d="M 12.535156 0.414062 C 5.851562 0.414062 0.433594 5.832031 0.433594 12.515625 C 0.433594 19.199219 5.851562 24.617188 12.535156 24.617188 C 19.21875 24.617188 24.636719 19.199219 24.636719 12.515625 C 24.636719 5.832031 19.21875 0.414062 12.535156 0.414062 Z M 12.535156 0.414062 " clip-rule="nonzero"/></clipPath><clipPath id="ddecf742ee"><rect x="0" width="25" y="0" height="25"/></clipPath><clipPath id="83d409b34d"><path d="M 129 119 L 343 119 L 343 241 L 129 241 Z M 129 119 " clip-rule="nonzero"/></clipPath><clipPath id="25597c7d6a"><path d="M 124.96875 263.882812 L 306.003906 119.195312 L 342.058594 164.308594 L 161.023438 308.992188 Z M 124.96875 263.882812 " clip-rule="nonzero"/></clipPath><clipPath id="275edfdb84"><path d="M 124.101562 263.933594 L 306.3125 118.308594 L 342.832031 164.007812 L 160.625 309.628906 Z M 124.101562 263.933594 " clip-rule="nonzero"/></clipPath><clipPath id="8ff160d0a6"><path d="M 13.835938 220.820312 L 262.832031 21.820312 L 363.503906 147.78125 L 114.507812 346.785156 Z M 13.835938 220.820312 " clip-rule="nonzero"/></clipPath><clipPath id="f291b909e8"><path d="M 124 163 L 269 163 L 269 253 L 124 253 Z M 124 163 " clip-rule="nonzero"/></clipPath><clipPath id="395cf1a646"><path d="M 124.96875 263.882812 L 306.003906 119.195312 L 342.058594 164.308594 L 161.023438 308.992188 Z M 124.96875 263.882812 " clip-rule="nonzero"/></clipPath><clipPath id="d505c3c9a6"><path d="M 124.101562 263.933594 L 306.3125 118.308594 L 342.832031 164.007812 L 160.625 309.628906 Z M 124.101562 263.933594 " clip-rule="nonzero"/></clipPath><clipPath id="2f9a2348dd"><path d="M 13.835938 220.820312 L 262.832031 21.820312 L 363.503906 147.78125 L 114.507812 346.785156 Z M 13.835938 220.820312 " clip-rule="nonzero"/></clipPath><clipPath id="17bef03023"><path d="M 320.976562 129.160156 L 360.890625 129.160156 L 360.890625 169.074219 L 320.976562 169.074219 Z M 320.976562 129.160156 " clip-rule="nonzero"/></clipPath><clipPath id="da37656ddd"><path d="M 340.933594 129.160156 C 329.910156 129.160156 320.976562 138.09375 320.976562 149.117188 C 320.976562 160.140625 329.910156 169.074219 340.933594 169.074219 C 351.957031 169.074219 360.890625 160.140625 360.890625 149.117188 C 360.890625 138.09375 351.957031 129.160156 340.933594 129.160156 Z M 340.933594 129.160156 " clip-rule="nonzero"/></clipPath><clipPath id="97390ddf90"><path d="M 0.976562 0.160156 L 40.890625 0.160156 L 40.890625 40.074219 L 0.976562 40.074219 Z M 0.976562 0.160156 " clip-rule="nonzero"/></clipPath><clipPath id="e532ba0b5f"><path d="M 20.933594 0.160156 C 9.910156 0.160156 0.976562 9.09375 0.976562 20.117188 C 0.976562 31.140625 9.910156 40.074219 20.933594 40.074219 C 31.957031 40.074219 40.890625 31.140625 40.890625 20.117188 C 40.890625 9.09375 31.957031 0.160156 20.933594 0.160156 Z M 20.933594 0.160156 " clip-rule="nonzero"/></clipPath><clipPath id="8d083c0c6d"><rect x="0" width="41" y="0" height="41"/></clipPath><clipPath id="e10c8abe88"><path d="M 258.222656 114.234375 L 283.8125 114.234375 L 283.8125 126.875 L 258.222656 126.875 Z M 258.222656 114.234375 " clip-rule="nonzero"/></clipPath><clipPath id="36b232338d"><path d="M 0.222656 0.234375 L 25.8125 0.234375 L 25.8125 12.875 L 0.222656 12.875 Z M 0.222656 0.234375 " clip-rule="nonzero"/></clipPath><clipPath id="24cfeff306"><rect x="0" width="26" y="0" height="13"/></clipPath></defs><g clip-path="url(#06f01f1ba2)"><g clip-path="url(#6657788d22)"><g transform="matrix(1, 0, 0, 1, 229, 96)"><g clip-path="url(#1224939b0f)"><g clip-path="url(#18a170f3cc)"><g clip-path="url(#e9867f02b9)"><path fill="#ffffff" d="M 0.191406 6.613281 L 5.851562 0.953125 L 48.410156 43.511719 L 42.75 49.171875 Z M 0.191406 6.613281 " fill-opacity="1" fill-rule="nonzero"/></g></g></g></g></g></g><g clip-path="url(#e29ca78219)"><g clip-path="url(#7d1bfcd3ec)"><g transform="matrix(1, 0, 0, 1, 23, 199)"><g clip-path="url(#a7d8854764)"><g clip-path="url(#a620601d42)"><g clip-path="url(#3ea31156d5)"><path fill="#ffffff" d="M 0.835938 69.660156 L 185.152344 0.710938 L 195.304688 27.863281 L 10.988281 96.808594 Z M 0.835938 69.660156 " fill-opacity="1" fill-rule="nonzero"/></g></g></g></g></g></g><g clip-path="url(#885ab884a1)"><g clip-path="url(#7f3f5fc964)"><g clip-path="url(#bc45f1452f)"><g clip-path="url(#f80a0988cd)"><path fill="#000000" d="M 242.257812 122.289062 C 246.640625 122.367188 255.207031 121.617188 263.605469 121.183594 C 272.003906 120.75 280.164062 120.648438 288.007812 120.960938 C 295.851562 121.273438 303.316406 122.015625 310.308594 123.417969 C 317.304688 124.816406 323.777344 126.835938 328.605469 129.183594 C 333.4375 131.53125 336.378906 133.597656 338.039062 136.042969 C 339.695312 138.488281 340.34375 141.105469 340.027344 144.039062 C 339.710938 146.972656 338.390625 150.269531 336.03125 153.914062 C 333.671875 157.5625 330.160156 161.421875 325.738281 165.175781 C 321.3125 168.933594 316.347656 172.539062 310.703125 176.089844 C 305.058594 179.640625 298.738281 183.128906 291.777344 186.605469 C 284.820312 190.085938 277.191406 193.484375 268.917969 196.84375 C 260.648438 200.199219 251.792969 203.648438 240.964844 207.613281 C 230.136719 211.574219 218.207031 215.738281 206.964844 219.425781 C 195.71875 223.109375 185.179688 226.386719 175.332031 229.222656 C 165.480469 232.0625 156.3125 234.472656 147.820312 236.484375 C 139.332031 238.5 131.515625 240.230469 125.945312 241.089844 C 120.371094 241.945312 120.371094 241.945312 124.109375 241.566406 C 124.109375 241.566406 131.65625 241.382812 139.941406 240.710938 C 148.226562 240.042969 157.203125 238.707031 166.863281 236.804688 C 176.527344 234.90625 186.871094 232.460938 197.871094 229.414062 C 208.871094 226.367188 220.535156 222.765625 232.859375 218.605469 C 245.183594 214.441406 254.589844 211.011719 263.359375 207.480469 C 272.125 203.945312 280.230469 200.273438 287.734375 196.621094 C 295.238281 192.972656 302.101562 189.261719 308.3125 185.464844 C 314.519531 181.667969 320.097656 177.835938 324.992188 173.871094 C 329.886719 169.90625 334.363281 165.53125 337.8125 161.242188 C 341.265625 156.957031 343.609375 152.722656 344.699219 148.539062 C 345.789062 144.355469 345.582031 140.339844 344.03125 136.710938 C 342.476562 133.082031 339.652344 130.023438 335.734375 127.5 C 331.820312 124.976562 325.21875 122.636719 318.199219 120.960938 C 311.179688 119.285156 303.746094 118.320312 295.964844 117.933594 C 288.183594 117.546875 280.109375 117.699219 271.808594 118.328125 C 263.507812 118.960938 255.03125 119.863281 250.789062 120.707031 C 242.234375 122.074219 246.570312 121.765625 242.257812 122.289062 Z M 242.257812 122.289062 " fill-opacity="1" fill-rule="nonzero"/></g></g></g></g><g clip-path="url(#b122f80065)"><g clip-path="url(#1c16cbe96a)"><g clip-path="url(#aec72c50ce)"><g clip-path="url(#deffa0094c)"><path fill="#000000" d="M 94.726562 165.207031 C 91.074219 167.621094 83.445312 171.582031 76.128906 175.71875 C 68.8125 179.859375 61.875 184.148438 55.429688 188.617188 C 48.988281 193.085938 43.089844 197.714844 37.945312 202.648438 C 32.804688 207.582031 28.433594 212.753906 25.625 217.324219 C 22.816406 221.890625 21.449219 225.214844 21.367188 228.164062 C 21.285156 231.113281 22.148438 233.671875 23.996094 235.972656 C 25.84375 238.277344 28.734375 240.347656 32.6875 242.160156 C 36.640625 243.96875 41.679688 245.339844 47.433594 246.136719 C 53.1875 246.933594 59.320312 247.308594 65.992188 247.277344 C 72.664062 247.242188 79.875 246.796875 87.617188 246 C 95.359375 245.199219 103.625 243.976562 112.40625 242.371094 C 121.191406 240.769531 130.515625 238.929688 141.78125 236.464844 C 153.050781 234 165.351562 231.113281 176.820312 228.195312 C 188.285156 225.273438 198.9375 222.382812 208.773438 219.496094 C 218.609375 216.605469 227.636719 213.722656 235.882812 210.867188 C 244.128906 208.015625 251.652344 205.285156 256.8125 203.019531 C 261.972656 200.753906 261.972656 200.753906 258.617188 202.4375 C 258.617188 202.4375 252.152344 206.328125 244.804688 210.207031 C 237.457031 214.085938 229.167969 217.773438 219.996094 221.347656 C 210.824219 224.925781 200.785156 228.410156 189.867188 231.742188 C 178.949219 235.070312 167.171875 238.289062 154.539062 241.390625 C 141.90625 244.488281 132.125 246.640625 122.828125 248.359375 C 113.53125 250.082031 104.71875 251.328125 96.421875 252.277344 C 88.128906 253.222656 80.339844 253.773438 73.058594 253.902344 C 65.777344 254.03125 59.007812 253.789062 52.746094 253.070312 C 46.484375 252.351562 40.351562 251.0625 35.132812 249.296875 C 29.910156 247.527344 25.652344 245.21875 22.480469 242.273438 C 19.308594 239.332031 17.320312 235.832031 16.671875 231.941406 C 16.027344 228.046875 16.761719 223.957031 18.707031 219.726562 C 20.648438 215.496094 24.953125 209.984375 29.96875 204.808594 C 34.988281 199.628906 40.738281 194.828125 47.089844 190.332031 C 53.445312 185.835938 60.335938 181.632812 67.671875 177.710938 C 75.011719 173.792969 82.648438 170.011719 86.679688 168.445312 C 94.632812 165.011719 90.804688 167.078125 94.726562 165.207031 Z M 94.726562 165.207031 " fill-opacity="1" fill-rule="nonzero"/></g></g></g></g><g clip-path="url(#d6abde7327)"><path fill="#000000" d="M 328.902344 200.835938 L 192.921875 69.90625 L 59.054688 200.867188 C 56.792969 203.082031 56.753906 206.726562 58.96875 208.984375 C 60.042969 210.082031 61.480469 210.695312 63.015625 210.710938 C 64.550781 210.71875 66 210.144531 67.09375 209.070312 L 192.988281 85.910156 L 320.925781 209.101562 C 322.003906 210.136719 323.417969 210.710938 324.914062 210.710938 C 326.488281 210.710938 327.957031 210.085938 329.050781 208.953125 C 331.25 206.675781 331.183594 203.035156 328.902344 200.835938 " fill-opacity="1" fill-rule="nonzero"/></g><path fill="#000000" d="M 250.734375 110.246094 L 287.3125 110.246094 L 287.3125 146.6875 C 287.3125 149.855469 289.886719 152.429688 293.058594 152.429688 C 296.226562 152.429688 298.800781 149.855469 298.800781 146.6875 L 298.800781 98.765625 L 250.734375 98.765625 C 247.566406 98.765625 244.988281 101.339844 244.988281 104.503906 C 244.988281 107.671875 247.566406 110.246094 250.734375 110.246094 " fill-opacity="1" fill-rule="nonzero"/><g clip-path="url(#1f1100546c)"><path fill="#000000" d="M 288.195312 197.351562 C 285.027344 197.351562 282.449219 199.929688 282.449219 203.09375 L 282.449219 309.304688 L 230.042969 309.304688 L 230.042969 309.253906 L 157.894531 309.253906 L 157.894531 309.304688 L 105.539062 309.304688 L 105.539062 203.09375 C 105.539062 199.929688 102.964844 197.351562 99.792969 197.351562 C 96.625 197.351562 94.050781 199.929688 94.050781 203.09375 L 94.050781 320.785156 L 169.386719 320.785156 L 169.386719 320.738281 L 218.550781 320.738281 L 218.550781 320.785156 L 293.941406 320.785156 L 293.941406 203.09375 C 293.941406 199.929688 291.363281 197.351562 288.195312 197.351562 " fill-opacity="1" fill-rule="nonzero"/></g><g clip-path="url(#f14d8f26e8)"><g clip-path="url(#4708e824f1)"><g transform="matrix(1, 0, 0, 1, 175, 151)"><g clip-path="url(#1ca9f5485b)"><g clip-path="url(#55e827f701)"><g clip-path="url(#e6b19a3f94)"><path fill="#ffffff" d="M 0.105469 69.605469 L 184.425781 0.65625 L 194.578125 27.808594 L 10.261719 96.753906 Z M 0.105469 69.605469 " fill-opacity="1" fill-rule="nonzero"/></g></g></g></g></g></g><g clip-path="url(#5824288466)"><g clip-path="url(#2367ca0c99)"><g transform="matrix(1, 0, 0, 1, 244, 110)"><g clip-path="url(#8b7a2d9db5)"><g clip-path="url(#5bdd494262)"><g clip-path="url(#906f751e58)"><path fill="#ffffff" d="M 0.980469 9.339844 L 9.566406 0.410156 L 28.21875 18.355469 L 19.632812 27.28125 Z M 0.980469 9.339844 " fill-opacity="1" fill-rule="nonzero"/></g></g></g></g></g></g><g clip-path="url(#e42092bdbc)"><g transform="matrix(1, 0, 0, 1, 279, 110)"><g clip-path="url(#d33bd7b22c)"><g clip-path="url(#ab82d1aa98)"><path fill="#ffffff" d="M 0.628906 39.109375 L 0.628906 0.394531 L 9.007812 0.394531 L 9.007812 39.109375 Z M 0.628906 39.109375 " fill-opacity="1" fill-rule="nonzero"/></g></g></g></g><g clip-path="url(#3fe03e358f)"><g clip-path="url(#b8a839e911)"><g transform="matrix(1, 0, 0, 1, 306, 191)"><g clip-path="url(#8057f515f1)"><g clip-path="url(#e9c68d38c7)"><g clip-path="url(#6dfd66503f)"><path fill="#ffffff" d="M 0 0.496094 L 40.230469 0.496094 L 40.230469 40.414062 L 0 40.414062 Z M 0 0.496094 " fill-opacity="1" fill-rule="nonzero"/></g></g></g></g></g></g><g clip-path="url(#b6d12bad9d)"><g transform="matrix(1, 0, 0, 1, 196, 34)"><g clip-path="url(#e0695d0eb3)"><g clip-path="url(#e0288136ea)"><path fill="#ffffff" d="M 0.28125 13.523438 L 0.28125 0.878906 L 25.863281 0.878906 L 25.863281 13.523438 Z M 0.28125 13.523438 " fill-opacity="1" fill-rule="nonzero"/></g></g></g></g><g clip-path="url(#2f8d7eeda6)"><g clip-path="url(#24e605f469)"><g transform="matrix(1, 0, 0, 1, 13, 231)"><g clip-path="url(#ddecf742ee)"><g clip-path="url(#7d1247812a)"><g clip-path="url(#552e953a52)"><path fill="#000000" d="M 0.433594 0.414062 L 24.636719 0.414062 L 24.636719 24.617188 L 0.433594 24.617188 Z M 0.433594 0.414062 " fill-opacity="1" fill-rule="nonzero"/></g></g></g></g></g></g><g clip-path="url(#83d409b34d)"><g clip-path="url(#25597c7d6a)"><g clip-path="url(#275edfdb84)"><g clip-path="url(#8ff160d0a6)"><path fill="#000000" d="M 250.171875 120.539062 C 254.554688 120.613281 263.121094 119.863281 271.519531 119.429688 C 279.917969 118.996094 288.078125 118.894531 295.921875 119.207031 C 303.761719 119.519531 311.230469 120.265625 318.222656 121.664062 C 325.21875 123.066406 331.691406 125.085938 336.519531 127.433594 C 341.351562 129.777344 344.292969 131.847656 345.953125 134.289062 C 347.609375 136.734375 348.257812 139.355469 347.941406 142.289062 C 347.625 145.21875 346.304688 148.515625 343.945312 152.164062 C 341.585938 155.808594 338.074219 159.667969 333.652344 163.425781 C 329.226562 167.183594 324.261719 170.785156 318.617188 174.335938 C 312.972656 177.886719 306.652344 181.375 299.691406 184.855469 C 292.734375 188.332031 285.105469 191.734375 276.832031 195.089844 C 268.5625 198.445312 259.707031 201.898438 248.878906 205.859375 C 238.050781 209.824219 226.121094 213.988281 214.878906 217.671875 C 203.632812 221.359375 193.09375 224.632812 183.246094 227.472656 C 173.394531 230.308594 164.226562 232.71875 155.734375 234.734375 C 147.246094 236.75 139.429688 238.480469 133.859375 239.335938 C 128.285156 240.195312 128.285156 240.195312 132.023438 239.8125 C 132.023438 239.8125 139.570312 239.628906 147.855469 238.960938 C 156.140625 238.292969 165.117188 236.957031 174.777344 235.054688 C 184.441406 233.152344 194.785156 230.707031 205.785156 227.660156 C 216.785156 224.617188 228.449219 221.015625 240.773438 216.851562 C 253.097656 212.691406 262.503906 209.261719 271.273438 205.726562 C 280.039062 202.195312 288.144531 198.519531 295.648438 194.871094 C 303.152344 191.222656 310.015625 187.507812 316.226562 183.714844 C 322.433594 179.917969 328.011719 176.082031 332.90625 172.121094 C 337.800781 168.15625 342.277344 163.78125 345.726562 159.492188 C 349.179688 155.203125 351.523438 150.96875 352.613281 146.789062 C 353.703125 142.605469 353.496094 138.585938 351.945312 134.957031 C 350.390625 131.332031 347.566406 128.273438 343.648438 125.75 C 339.730469 123.222656 333.132812 120.882812 326.113281 119.207031 C 319.09375 117.53125 311.660156 116.566406 303.878906 116.183594 C 296.097656 115.796875 288.023438 115.945312 279.722656 116.578125 C 271.421875 117.207031 262.945312 118.109375 258.703125 118.953125 C 250.148438 120.320312 254.484375 120.011719 250.171875 120.539062 Z M 250.171875 120.539062 " fill-opacity="1" fill-rule="nonzero"/></g></g></g></g><g clip-path="url(#f291b909e8)"><g clip-path="url(#395cf1a646)"><g clip-path="url(#d505c3c9a6)"><g clip-path="url(#2f9a2348dd)"><path fill="#000000" d="M 102.640625 163.457031 C 98.988281 165.871094 91.359375 169.828125 84.042969 173.96875 C 76.726562 178.105469 69.789062 182.398438 63.34375 186.867188 C 56.902344 191.335938 51.003906 195.964844 45.859375 200.894531 C 40.71875 205.828125 36.347656 211.003906 33.539062 215.570312 C 30.730469 220.140625 29.363281 223.460938 29.28125 226.410156 C 29.199219 229.363281 30.0625 231.917969 31.910156 234.222656 C 33.757812 236.523438 36.648438 238.597656 40.601562 240.40625 C 44.554688 242.21875 49.59375 243.589844 55.347656 244.386719 C 61.101562 245.179688 67.234375 245.558594 73.90625 245.523438 C 80.578125 245.492188 87.789062 245.042969 95.53125 244.246094 C 103.273438 243.449219 111.539062 242.222656 120.320312 240.621094 C 129.105469 239.015625 138.429688 237.175781 149.695312 234.710938 C 160.964844 232.246094 173.265625 229.363281 184.734375 226.441406 C 196.199219 223.519531 206.851562 220.632812 216.6875 217.742188 C 226.523438 214.855469 235.550781 211.96875 243.796875 209.117188 C 252.042969 206.261719 259.566406 203.53125 264.726562 201.265625 C 269.886719 199 269.886719 199 266.53125 200.6875 C 266.53125 200.6875 260.066406 204.574219 252.71875 208.453125 C 245.371094 212.332031 237.082031 216.019531 227.910156 219.597656 C 218.738281 223.175781 208.699219 226.660156 197.78125 229.988281 C 186.863281 233.320312 175.085938 236.539062 162.453125 239.636719 C 149.820312 242.734375 140.039062 244.886719 130.742188 246.609375 C 121.445312 248.328125 112.632812 249.578125 104.335938 250.523438 C 96.042969 251.46875 88.253906 252.019531 80.972656 252.148438 C 73.691406 252.277344 66.921875 252.035156 60.660156 251.316406 C 54.398438 250.597656 48.265625 249.308594 43.046875 247.542969 C 37.824219 245.777344 33.566406 243.464844 30.394531 240.523438 C 27.222656 237.578125 25.234375 234.082031 24.585938 230.1875 C 23.941406 226.296875 24.675781 222.203125 26.621094 217.972656 C 28.5625 213.746094 32.867188 208.230469 37.882812 203.054688 C 42.902344 197.878906 48.652344 193.078125 55.003906 188.582031 C 61.355469 184.082031 68.25 179.878906 75.585938 175.960938 C 82.925781 172.042969 90.5625 168.257812 94.59375 166.691406 C 102.546875 163.257812 98.71875 165.324219 102.640625 163.457031 Z M 102.640625 163.457031 " fill-opacity="1" fill-rule="nonzero"/></g></g></g></g><g clip-path="url(#17bef03023)"><g clip-path="url(#da37656ddd)"><g transform="matrix(1, 0, 0, 1, 320, 129)"><g clip-path="url(#8d083c0c6d)"><g clip-path="url(#97390ddf90)"><g clip-path="url(#e532ba0b5f)"><path fill="#000000" d="M 0.976562 0.160156 L 40.890625 0.160156 L 40.890625 40.074219 L 0.976562 40.074219 Z M 0.976562 0.160156 " fill-opacity="1" fill-rule="nonzero"/></g></g></g></g></g></g><g clip-path="url(#e10c8abe88)"><g transform="matrix(1, 0, 0, 1, 258, 114)"><g clip-path="url(#24cfeff306)"><g clip-path="url(#36b232338d)"><path fill="#ffffff" d="M 0.222656 12.875 L 0.222656 0.234375 L 25.804688 0.234375 L 25.804688 12.875 Z M 0.222656 12.875 " fill-opacity="1" fill-rule="nonzero"/></g></g></g></g></svg>